<?xml version="1.0" encoding="utf-8"?>
<!-- Generator: Adobe Illustrator 18.1.1, SVG Export Plug-In . SVG Version: 6.00 Build 0)  -->
<!DOCTYPE svg PUBLIC "-//W3C//DTD SVG 1.1//EN" "http://www.w3.org/Graphics/SVG/1.1/DTD/svg11.dtd">
<svg version="1.1" id="Layer_1" xmlns="http://www.w3.org/2000/svg" xmlns:xlink="http://www.w3.org/1999/xlink" x="0px" y="0px"
	 width="256px" height="256px" viewBox="0 0 256 256" style="enable-background:new 0 0 256 256;" xml:space="preserve">
<style type="text/css">
	.st0{fill:#3B3A33;}
</style>
<g>
	<path class="st0" d="M40.2,107.9l0.3-0.3c0.4-1.6,1.1-6.8-4-11.7c-5.1-4.9-11.1-5-12.9-5l-0.1,0.1c0,1.8,0.3,7.7,5.1,12.7
		C33.7,108.8,38.7,108.3,40.2,107.9z"/>
	<path class="st0" d="M142,168.9c3.5-3.6,3.7-7.9,3.7-9.2l0,0c-1.3-0.1-5.6,0.1-9.3,3.6c-0.7,0.6-1.2,1.3-1.6,1.9v-13.7
		c3.1,2.7,7.2,4.3,11.6,4.3h47.3c6.2,0,11.7-3.2,14.9-8.1h10.3c9.7,0,17.7-7.9,17.7-17.7v-16.4c1.6,0.1,4.4-0.3,7.2-3.2
		c3.5-3.7,3.7-7.9,3.7-9.2l0,0c-1.3-0.1-5.7,0.1-9.3,3.6c-0.6,0.6-1.1,1.2-1.5,1.8v-1c0-1.7-1.4-3-3.1-3c-1.7,0-3.1,1.4-3.1,3v12.6
		c-0.1-0.1-0.2-0.2-0.2-0.2c-3.7-3.5-8-3.7-9.3-3.6l0,0.1c0,1.3,0.2,5.6,3.7,9.2c2.1,2.2,4.3,2.9,5.9,3.1v3.2
		c0,6.4-5.2,11.6-11.6,11.6H211c0.2-0.9,0.3-1.8,0.3-2.7c0.2-1.3,0.3-4.3-2.7-7.2c-3.3-3.2-7.2-3.3-8.4-3.2l0,0c0,1.2,0.2,5,3.4,8.3
		c0.6,0.6,1.1,1,1.7,1.4c0,0,0,0,0,0c0,6.4-5.2,11.6-11.6,11.6h-11.1c2.7-3.1,4.3-7.2,4.3-11.6V115c2.1,0.2,6.4,0,10.5-4.3
		c4.9-5,5.2-10.9,5.1-12.7l-0.1-0.1c-1.8-0.1-7.8,0.1-12.9,5c-1.2,1.2-2.1,2.4-2.7,3.5V88.8c0-0.1,0-0.3,0-0.4c0,0,0-0.2,0-0.4
		c1.2,0.2,4.3,0.4,7.3-2.8c3.2-3.3,3.4-7.1,3.4-8.3l0,0c-1.2,0-5.1,0.1-8.4,3.2c-1,1-1.7,2-2.1,2.9c0.4-2.3,1.2-4.9,3-7
		c2.4-2.7,6.1-4.1,11.1-4.1c1.7,0,3.1-1.4,3.1-3s-1.4-3-3.1-3c-6.9,0-12.1,2.1-15.7,6.2c-5.5,6.4-4.7,15.3-4.5,17v8.2
		c-0.6-1.5-1.7-3-3.2-4.5c-5.1-4.9-11.1-5-12.9-5l-0.1,0.1c0,1.8,0.3,7.7,5.1,12.7c4.5,4.7,9.1,4.5,11,4.3v16.8
		c-0.7-1.2-1.7-2.4-3-3.6c-6.3-6.1-13.7-6.3-16-6.2l-0.1,0.1c0,2.2,0.3,9.5,6.4,15.8c4.9,5,9.9,5.6,12.6,5.4v5.2
		c0,6.4-5.2,11.6-11.6,11.6h-22.9c-6.2,0-11.2-4.8-11.6-10.9l0.1,0.1c1.1,0.2,4.7,0.6,8.3-3c3.5-3.6,3.7-7.9,3.7-9.2l-0.1,0
		c-1.3-0.1-5.6,0.1-9.3,3.6c-1.7,1.6-2.5,3.3-2.8,4.7v-10.5c0.3,0.1,0.7,0.2,1.1,0.2c9.7,0,17.7-7.9,17.7-17.7V91.6
		c1.6,0.2,4.6-0.1,7.5-3.1c3.5-3.6,3.7-7.9,3.7-9.2l0,0c-1.3-0.1-5.6,0.1-9.3,3.6c-0.8,0.8-1.4,1.6-1.9,2.4V58.4
		c1.6,0.3,6.6,0.8,11.4-4.2c4.9-5,5.2-10.9,5.1-12.7l-0.1-0.1c-1.8-0.1-7.8,0.1-12.9,5c-1.9,1.9-3,3.7-3.6,5.5V35.2
		c0-1.7-1.4-3.1-3-3.1c-1.2,0-2.2,0.7-2.7,1.6c-0.6-2.5-1.9-5.5-4.9-8.5c-6.3-6.1-13.7-6.3-16-6.2l-0.1,0.1c0,2.2,0.3,9.5,6.4,15.8
		c6.1,6.3,12.3,5.6,14.2,5.2l0,0v22.6c-0.6-1.5-1.7-3-3.2-4.5c-5.1-4.9-11.1-5-12.9-5l-0.1,0.1c0,1.8,0.3,7.7,5.1,12.7
		c4.5,4.7,9.1,4.6,11,4.3v36.9c0,6.4-5.2,11.6-11.6,11.6c-0.4,0-0.8,0.1-1.1,0.2v-5.1c0,0,0,0,0-0.1v-9l0,0c1,0.2,4.3,0.6,7.4-2.7
		c3.2-3.3,3.3-7.1,3.3-8.2l0,0c-1.2,0-5.1,0.1-8.3,3.2c-1.3,1.3-2,2.6-2.4,3.8V82.3c0-9.7-7.9-17.7-17.7-17.7h-3.2
		c-0.1-1.7-0.7-4-3-6.3c-3.6-3.5-7.8-3.6-9.1-3.5l0,0c0,1.3,0.2,5.4,3.6,9c0.3,0.3,0.5,0.5,0.8,0.7H95.9c-0.5-2.6-1.8-5.8-5-8.9
		c-6.3-6.1-13.7-6.3-16-6.2l-0.1,0.1c0,2.2,0.3,9.5,6.4,15.8c5.7,5.9,11.5,5.7,13.8,5.3h22.1c6.4,0,11.6,5.2,11.6,11.6V91
		c-0.7-2.1-2.1-4.5-4.5-6.8c-6.3-6.1-13.7-6.3-16-6.2l-0.1,0.1c0,2.2,0.3,9.5,6.4,15.8c6,6.2,12.2,5.6,14.2,5.2v29.3c0,0,0,0,0,0
		v9.6c-0.6-1.4-1.6-2.8-3.1-4.3c-5.1-4.9-11.1-5-12.9-5l-0.1,0.1c0,1.8,0.3,7.7,5.1,12.7c4.4,4.6,8.9,4.6,10.9,4.3v7
		c0,6.4-5.2,11.6-11.6,11.6h-10.7c2.7-3.1,4.3-7.2,4.3-11.6v-38c1.4,0.2,4.5,0.1,7.6-3c3.4-3.5,3.6-7.6,3.6-8.9l0,0
		c-1.3,0-5.5,0.1-9,3.5c-1,1-1.7,1.9-2.1,2.8v-5.7c0-9.4-7.4-17.1-16.7-17.7c-0.5-1-1.2-2-2.2-3.1c-3.6-3.5-7.8-3.6-9.1-3.5l0,0
		c0,1.3,0.2,5.4,3.6,9c1.7,1.7,3.4,2.5,4.8,2.9c0.5,0.5,1.2,0.7,2,0.7c6.4,0,11.6,5.2,11.6,11.6v16.9c-0.6-1.3-1.6-2.7-3-4.1
		c-5.1-4.9-11.1-5-12.9-5l-0.1,0.1c0,1.8,0.3,7.7,5.1,12.7c4.3,4.5,8.8,4.6,10.8,4.3v17.4c-0.7-1.9-1.9-4-4-6.1
		c-5.7-5.5-12.5-5.7-14.5-5.6l-0.1,0.1c0,2,0.3,8.7,5.8,14.4c5.4,5.6,11,5.1,12.8,4.7c-0.2,6.2-5.3,11.2-11.6,11.2H82.9H69.3v-4.8
		c1.6,0.2,5.4,0.3,9.1-3.5c4-4.2,4.3-9,4.3-10.5l-0.1-0.1c-1.5-0.1-6.5,0.1-10.7,4.1c-1.3,1.2-2.1,2.5-2.7,3.7v-25.1
		c1.4,0.2,4.5,0.1,7.6-3c3.4-3.5,3.6-7.6,3.6-8.9l0,0c-1.3-0.1-5.5,0.1-9,3.5c-1,0.9-1.6,1.9-2.1,2.8c0.3-6.1,5.4-11,11.6-11
		c1.7,0,3-1.4,3-3s-1.4-3.1-3-3.1c-9.7,0-17.7,7.9-17.7,17.7v9.7c-0.4-1-1.1-2.1-2.2-3.1c-3.3-3.2-7.3-3.3-8.5-3.3l0,0
		c0,1.2,0.2,5.1,3.4,8.4c3,3.1,6.1,3,7.4,2.8v26.7h-4.6c-5.5,0-10.1-3.9-11.3-9.1l0.1,0.1c1.3,0.3,5.4,0.7,9.5-3.5
		c4-4.2,4.3-9,4.3-10.5l0-0.1c-1.5-0.1-6.5,0.1-10.7,4.1c-2.3,2.2-3.2,4.5-3.4,6.3v-37.4c0,0.2,0.1,0.4,0.1,0.5l0.3,0.3
		c1.6,0.3,6.6,0.9,11.5-4.2c4.9-5,5.2-10.9,5.1-12.7l-0.1-0.1c-1.8-0.1-7.8,0.1-12.9,5c-2.7,2.6-3.7,5.2-4.1,7.4V88.1
		c0-1.7-1.4-3-3.1-3c-1.7,0-3,1.4-3,3v38.8c-0.8-1.8-2.1-3.8-4-5.7c-6.3-6.1-13.7-6.3-16-6.2l-0.1,0.1c0,2.2,0.3,9.5,6.4,15.8
		c5.6,5.8,11.3,5.7,13.7,5.3v16.7c0,4.4,1.6,8.5,4.3,11.6H30.8c-5.3,0-9.7-3.6-11.1-8.4c2.1,0.2,6.4,0.1,10.7-4.3
		c4.9-5,5.2-10.9,5.1-12.7l-0.1-0.1c-1.8-0.1-7.8,0.1-12.9,5c-2.5,2.4-3.6,4.9-4,7c-0.6-0.7-1.4-1.1-2.4-1.1c-0.5,0-1,0.1-1.4,0.3
		c-0.3-1.4-1-3-2.6-4.6c-3.3-3.2-7.3-3.3-8.5-3.3l0,0c0,1.2,0.2,5.1,3.4,8.4c2.3,2.4,4.6,2.9,6.1,2.9c0.4,9.4,8.2,16.9,17.7,16.9
		h27.7h4.6v2c0,0.6,0,1.2,0.1,1.7c-2.9-1.9-5.7-1.9-6.7-1.9l0,0c0,1.2,0.2,5.1,3.4,8.4c2.9,3,5.9,3,7.2,2.8
		c2.8,3.5,6.9,5.9,11.6,6.4c-1.6,0.4-3.5,1.2-5.4,3.2c-3.8,3.9-4,8.5-4,9.9l0,0.1c1.4,0.1,6.1-0.1,10-3.9c4-3.8,3.4-7.9,3.1-9.1l0,0
		h19.1c-0.9,0.4-1.9,1.1-2.9,2.1c-3.2,3.3-3.4,7.2-3.4,8.3l0,0c1.2,0,5.1-0.1,8.5-3.3c2.9-2.8,2.9-5.8,2.7-7.2
		c5.8,0.6,10.4,5.5,10.4,11.5V220c0,6.4-5.2,11.6-11.6,11.6c-1.7,0-3,1.4-3,3s1.4,3,3,3c9.7,0,17.7-7.9,17.7-17.7v-18.3
		c0-2.7-0.6-5.2-1.7-7.5c7.7-1.9,13.5-8.9,13.5-17.2v-5C136.4,172.2,139.2,171.8,142,168.9z M117.2,188.6c-3.1-2.8-7.3-4.6-11.8-4.6
		h-0.1c0,0,0,0,0,0H87.1c0.8-0.4,1.7-1,2.6-2c3.2-3.3,3.3-7.1,3.3-8.2l0,0c-1.2-0.1-5.1,0.1-8.3,3.2c-2.8,2.7-2.9,5.6-2.7,7h-1.1
		c-6.4,0-11.6-5.2-11.6-11.6v-2h13.7H93h24.1c4.4,0,8.5-1.6,11.6-4.3v10.9C128.7,183.4,123.5,188.6,117.2,188.6z"/>
	<path class="st0" d="M153.8,35.1c1,0.2,4.3,0.6,7.4-2.7c3.2-3.3,3.3-7.1,3.3-8.2l0,0c-1.2,0-5.1,0.1-8.3,3.2
		c-3.3,3.2-2.8,6.5-2.6,7.6L153.8,35.1z"/>
	<path class="st0" d="M252.4,137.9L252.4,137.9c-1.4-0.1-5.7,0-9.4,3.6c-0.5,0.5-1,1-1.4,1.6c-0.4-1.1-1.5-1.9-2.8-1.9
		c-1.7,0-3,1.4-3,3.1v17.7c-0.6-1.5-1.7-3.1-3.3-4.7c-5-4.8-11-5-12.8-4.9l-0.1,0.1c0,1.8,0.3,7.6,5.1,12.6c4.5,4.7,9.1,4.5,11,4.2
		c-0.3,6.1-5.4,11-11.6,11H196c1-0.6,2.1-1.4,3.1-2.5c4.5-4.7,4.8-10.2,4.8-11.9l-0.1-0.1c-1.7-0.1-7.3,0.1-12,4.7
		c-3.9,3.7-4.1,7.6-3.9,9.8h-13.1c-6,0-10.9-4.5-11.5-10.4H183c0.9,0,1.7-0.4,2.2-1c1.4-0.1,3.4-0.7,5.3-2.7c3-3.1,3.2-6.8,3.2-7.9
		l0,0c-1.1,0-4.9,0.1-8,3.1c-0.9,0.9-1.5,1.7-1.9,2.5c-0.3-0.1-0.5-0.1-0.8-0.1h-24.4c-9.7,0-17.7,7.9-17.7,17.7V220
		c0,9.7,7.9,17.7,17.7,17.7c1.7,0,3.1-1.4,3.1-3c0-1.7-1.4-3-3.1-3c-6.4,0-11.6-5.2-11.6-11.6v-19.8c1,0.1,3-0.1,5-2.1
		c2.3-2.4,2.5-5.2,2.4-6l0,0c-0.9,0-3.7,0-6.1,2.4c-0.5,0.5-0.9,1.1-1.2,1.6v-7.6c1.4,0.1,3.8-0.3,6.1-2.7c3-3.1,3.2-6.8,3.2-7.9
		l0,0c-1.1,0-4.9,0.1-8,3.1c-0.5,0.5-0.9,1-1.2,1.5v-1c0-5.9,4.4-10.7,10.1-11.5c0.7,9.1,8.3,16.3,17.6,16.3h26.5
		c-0.2,1.9-0.2,6,4,10.1c4.7,4.5,10.2,4.8,11.9,4.8l0.1-0.1c0.1-1.7-0.1-7.3-4.7-12c-1.2-1.3-2.5-2.2-3.7-2.8h15.3
		c9.7,0,17.7-7.9,17.7-17.7v-18.2c1.7,0,4.3-0.5,6.8-3.2C252.2,143.5,252.4,139.2,252.4,137.9z"/>
</g>
<g>
</g>
<g>
</g>
<g>
</g>
<g>
</g>
<g>
</g>
<g>
</g>
<g>
</g>
<g>
</g>
<g>
</g>
<g>
</g>
<g>
</g>
<g>
</g>
<g>
</g>
<g>
</g>
<g>
</g>
</svg>
